<svg id="圖層_1" data-name="圖層 1" xmlns="http://www.w3.org/2000/svg" viewBox="0 0 94.07 29.55"><defs><style>.cls-1{fill:#b5acad;}</style></defs><path class="cls-1" d="M23,12.61A10.5,10.5,0,0,1,33.64,2,10.78,10.78,0,0,1,44.35,12.28,10.71,10.71,0,0,1,33.62,22.92,10.4,10.4,0,0,1,23,12.61ZM33.5,18.28a5.83,5.83,0,1,0-5.61-5.79A5.9,5.9,0,0,0,33.5,18.28Z" transform="translate(-0.93 -1.01)"/><path class="cls-1" d="M2.05,3.25H6.26l.36,7.23h7.27l.33-7.19h4.19V22.13h-4.2V15.39H6.57v6.74H2.05Z" transform="translate(-0.93 -1.01)"/><path class="cls-1" d="M73.38,19.32A10.49,10.49,0,0,1,84,8.67,10.79,10.79,0,0,1,94.71,19,10.72,10.72,0,0,1,84,29.64,10.4,10.4,0,0,1,73.38,19.32ZM83.85,25a5.83,5.83,0,1,0-5.61-5.8A5.9,5.9,0,0,0,83.85,25Z" transform="translate(-0.93 -1.01)"/><path class="cls-1" d="M52.41,10h4.21L57,17.19h7.26L64.57,10h4.19V28.85h-4.2V22.11H56.92v6.74H52.41Z" transform="translate(-0.93 -1.01)"/><path class="cls-1" d="M52.89,5V1H95V5Z" transform="translate(-0.93 -1.01)"/><path class="cls-1" d="M.93,30.56v-4H43.05v4Z" transform="translate(-0.93 -1.01)"/></svg>